<?xml version="1.0" encoding="iso-8859-1"?>
<!-- Uploaded to: SVG Repo, www.svgrepo.com, Generator: SVG Repo Mixer Tools -->
<svg height="800px" width="800px" version="1.1" id="Layer_1" xmlns="http://www.w3.org/2000/svg" xmlns:xlink="http://www.w3.org/1999/xlink" 
	 viewBox="0 0 376.786 376.786" xml:space="preserve">
<g>
	<g>
		<path style="fill:#B36F0F;" d="M205.4,364.112h-18.253v-64.834h-13.336v71.172c0,3.5,2.837,6.336,6.337,6.336H205.4
			c3.499,0,6.337-2.836,6.337-6.336S208.899,364.112,205.4,364.112z"/>
		<g>
			<path style="fill:#DADBDC;" d="M168.605,291.311c0-6.559,5.314-11.876,11.873-11.876s11.874,5.317,11.874,11.876v10.336
				c0,6.559-5.315,11.875-11.874,11.875c-6.559,0-11.873-5.316-11.873-11.875V291.311z"/>
		</g>
	</g>
	<g>
		<path style="fill:#ED9900;" d="M174.213,364.112H155.96v-64.834h-13.336v71.172c0,3.5,2.837,6.336,6.337,6.336h25.252
			c3.5,0,6.338-2.836,6.338-6.336S177.713,364.112,174.213,364.112z"/>
		<g>
			<path style="fill:#DADBDC;" d="M137.418,291.311c0-6.559,5.314-11.876,11.873-11.876c6.56,0,11.875,5.317,11.875,11.876v10.336
				c0,6.559-5.315,11.875-11.875,11.875c-6.559,0-11.873-5.316-11.873-11.875V291.311z"/>
		</g>
	</g>
	<path style="fill:#DADBDC;" d="M274.448,177.223l0.006-0.008l-58.891-58.892c2.225-1.717,4.373-3.577,6.414-5.615
		c25.783-25.783,25.783-67.587-0.001-93.372c-25.783-25.782-67.586-25.782-93.369,0.001c-25.784,25.784-25.783,67.585,0,93.37
		l44.227,44.227H17.787v30.701c0,61.659,49.983,111.643,111.643,111.643h95.274c39.308,0,71.172-31.865,71.172-71.172
		C295.876,208.163,287.663,190.145,274.448,177.223z"/>
	<circle style="fill:#333E48;" cx="185.678" cy="43.166" r="8.498"/>
	<g>
		<path style="fill:#E8E8E8;" d="M181.397,270.489c24.934,0.001,45.146-20.211,45.143-45.143c0-24.933-20.212-45.145-45.144-45.142
			l-131.203-0.002c0,49.863,40.422,90.287,90.284,90.287H181.397z"/>
		<path style="fill:#333E48;" d="M68.081,180.203H50.193c0,49.863,40.422,90.287,90.284,90.287h17.874
			C108.495,270.482,68.081,230.061,68.081,180.203z"/>
	</g>
	<g>
		<path style="fill:#ED9900;" d="M163.607,81.973l75.817,75.815h-0.002c12.677,12.678,30.189,20.517,49.53,20.516
			c38.685,0,70.046-31.358,70.046-70.043V81.973H163.607z"/>
		<path style="fill:#FFB648;" d="M163.607,81.973c0-12.025,9.747-21.771,21.77-21.771h151.85c12.024,0,21.772,9.746,21.772,21.771
			H163.607z"/>
	</g>
</g>
</svg>